<svg width="127" height="122" viewBox="0 0 127 122" fill="none" xmlns="http://www.w3.org/2000/svg">
<path d="M54.8444 9.98445L2.63977 100.217C-4.39449 112.375 3.4535 125.85 16.4251 120.461C27.6286 115.806 37.475 108.995 41.0964 103.639L66.716 56.7503C70.4591 49.8998 80.2995 49.9069 84.0327 56.7627C87.2439 62.6598 83.7516 69.9719 77.1467 71.1808L67.662 72.9168C63.0306 73.7645 59.0492 76.7014 56.8721 80.8763C51.5708 91.042 58.9462 103.206 70.4111 103.206L106.168 103.206C121.072 103.206 130.74 87.4893 124.019 74.1866L92.1038 11.0225C88.7658 4.41622 82.0522 0.193603 74.652 0.0459545L72.5548 0.00411207C65.2747 -0.14114 58.4909 3.68173 54.8444 9.98445Z" fill="url(#paint0_linear_5350_997)"/>
<defs>
<linearGradient id="paint0_linear_5350_997" x1="65.8138" y1="-0.130383" x2="63.2727" y2="127.234" gradientUnits="userSpaceOnUse">
<stop stop-color="#7E20C8"/>
<stop offset="1" stop-color="#BB64FF"/>
</linearGradient>
</defs>
</svg>
