<svg width="646" height="202" viewBox="0 0 646 202" fill="none" xmlns="http://www.w3.org/2000/svg">
<path d="M245.365 115.037C245.365 110.258 244.55 105.914 242.921 102.004C241.292 97.9856 239.066 94.5645 236.242 91.7407C233.418 88.9169 230.106 86.7448 226.304 85.2243C222.503 83.5952 218.43 82.7807 214.086 82.7807C208.873 82.7807 204.312 83.8124 200.402 85.8759C196.6 87.8309 193.397 90.3831 190.79 93.5327C188.183 96.6823 186.229 100.158 184.925 103.959C183.731 107.76 183.133 111.453 183.133 115.037C183.133 119.164 183.893 123.128 185.414 126.929C186.934 130.731 189.052 134.097 191.767 137.03C194.483 139.962 197.741 142.351 201.542 144.198C205.343 145.935 209.47 146.804 213.923 146.804C218.376 146.804 222.503 145.99 226.304 144.361C230.106 142.623 233.418 140.342 236.242 137.518C239.066 134.586 241.292 131.219 242.921 127.418C244.55 123.508 245.365 119.381 245.365 115.037ZM245.039 160V145.99H244.713C241.455 151.529 237.056 155.656 231.517 158.371C226.087 160.977 220.277 162.281 214.086 162.281C206.484 162.281 199.696 160.977 193.722 158.371C187.749 155.656 182.699 152.126 178.572 147.782C174.553 143.329 171.458 138.279 169.286 132.631C167.222 126.984 166.191 121.173 166.191 115.2C166.191 109.661 167.168 104.068 169.123 98.42C171.078 92.7725 174.01 87.668 177.92 83.1065C181.939 78.4364 186.934 74.6352 192.908 71.7028C198.881 68.7704 205.941 67.3042 214.086 67.3042C220.385 67.3042 226.25 68.6075 231.68 71.214C237.111 73.712 241.455 77.4589 244.713 82.4548H245.039V69.7479H261.982V160H245.039ZM294.296 59.3216H277.354V39.4466H294.296V59.3216ZM294.296 160H277.354V69.7479H294.296V160ZM310.144 160V85.2243H302.162V69.7479H310.144V65.3493C310.144 60.462 311.068 56.3349 312.914 52.9681C314.76 49.6013 317.421 46.7232 320.897 44.3339C322.743 43.2478 324.426 42.379 325.947 41.7273C327.576 41.0757 329.205 40.587 330.834 40.2611C332.572 39.9353 334.364 39.7181 336.21 39.6095C338.165 39.5009 340.391 39.4466 342.889 39.4466V54.923C337.242 54.923 333.169 55.9005 330.671 57.8554C328.282 59.7017 327.087 62.1997 327.087 65.3493V69.7479H342.889V85.2243H327.087V160H310.144ZM419.589 115.037C419.589 110.258 418.775 105.914 417.146 102.004C415.517 97.9856 413.29 94.5645 410.466 91.7407C407.643 88.9169 404.33 86.7448 400.529 85.2243C396.728 83.5952 392.655 82.7807 388.311 82.7807C383.098 82.7807 378.536 83.8124 374.626 85.8759C370.825 87.8309 367.621 90.3831 365.015 93.5327C362.408 96.6823 360.453 100.158 359.15 103.959C357.955 107.76 357.358 111.453 357.358 115.037C357.358 119.164 358.118 123.128 359.639 126.929C361.159 130.731 363.277 134.097 365.992 137.03C368.707 139.962 371.965 142.351 375.767 144.198C379.568 145.935 383.695 146.804 388.148 146.804C392.601 146.804 396.728 145.99 400.529 144.361C404.33 142.623 407.643 140.342 410.466 137.518C413.29 134.586 415.517 131.219 417.146 127.418C418.775 123.508 419.589 119.381 419.589 115.037ZM419.264 160V145.99H418.938C415.68 151.529 411.281 155.656 405.742 158.371C400.312 160.977 394.501 162.281 388.311 162.281C380.708 162.281 373.92 160.977 367.947 158.371C361.974 155.656 356.923 152.126 352.796 147.782C348.778 143.329 345.683 138.279 343.51 132.631C341.447 126.984 340.415 121.173 340.415 115.2C340.415 109.661 341.393 104.068 343.348 98.42C345.302 92.7725 348.235 87.668 352.145 83.1065C356.163 78.4364 361.159 74.6352 367.132 71.7028C373.106 68.7704 380.165 67.3042 388.311 67.3042C394.61 67.3042 400.475 68.6075 405.905 71.214C411.335 73.712 415.68 77.4589 418.938 82.4548H419.264V69.7479H436.206V160H419.264ZM514.625 160V110.964C514.625 109.226 514.516 106.783 514.299 103.633C514.082 100.484 513.267 97.3883 511.855 94.3473C510.443 91.1977 508.217 88.4825 505.176 86.2018C502.135 83.921 497.791 82.7807 492.143 82.7807C484.975 82.7807 479.219 85.17 474.874 89.9487C470.53 94.7274 468.358 101.678 468.358 110.801V160H451.415V69.7479H467.218V79.3595H467.544C469.824 76.3186 472.322 73.9835 475.037 72.3544C477.753 70.7253 480.359 69.5306 482.857 68.7704C485.355 68.0101 487.581 67.5757 489.536 67.4671C491.6 67.3585 493.066 67.3042 493.935 67.3042C500.994 67.3042 507.239 68.7161 512.67 71.5399C518.209 74.3636 522.607 78.3278 525.865 83.4323C527.712 86.3647 529.069 89.6772 529.938 93.3698C530.916 97.0624 531.459 101.461 531.567 106.566V160H514.625ZM622.475 114.548C622.475 110.53 621.715 106.62 620.194 102.819C618.674 99.0174 616.501 95.6505 613.678 92.7182C610.962 89.6772 607.65 87.2878 603.74 85.5501C599.83 83.7038 595.486 82.7807 590.707 82.7807C585.929 82.7807 581.584 83.7038 577.675 85.5501C573.765 87.2878 570.398 89.6772 567.574 92.7182C564.859 95.6505 562.741 99.0717 561.221 102.981C559.7 106.783 558.94 110.693 558.94 114.711C558.94 118.838 559.7 122.802 561.221 126.603C562.741 130.405 564.913 133.826 567.737 136.867C570.561 139.908 573.873 142.351 577.675 144.198C581.584 145.935 585.929 146.804 590.707 146.804C595.269 146.804 599.45 145.935 603.251 144.198C607.161 142.46 610.528 140.125 613.352 137.193C616.284 134.152 618.511 130.676 620.031 126.766C621.66 122.857 622.475 118.784 622.475 114.548ZM639.417 114.548C639.417 120.087 638.277 125.68 635.996 131.328C633.824 136.975 630.675 142.08 626.548 146.641C622.42 151.203 617.316 154.95 611.234 157.882C605.152 160.815 598.31 162.281 590.707 162.281C583.105 162.281 576.263 160.869 570.181 158.045C564.207 155.113 559.103 151.366 554.867 146.804C550.74 142.243 547.536 137.138 545.255 131.491C543.083 125.735 541.997 119.978 541.997 114.222C541.997 108.032 543.192 102.113 545.581 96.4651C548.079 90.8175 551.5 85.8759 555.845 81.6403C560.189 77.296 565.293 73.8206 571.158 71.214C577.131 68.6075 583.648 67.3042 590.707 67.3042C597.55 67.3042 603.903 68.5532 609.768 71.0511C615.741 73.5491 620.9 76.9702 625.244 81.3145C629.697 85.5501 633.173 90.546 635.67 96.3022C638.168 102.058 639.417 108.14 639.417 114.548Z" fill="white"/>
<path d="M66.8131 68.2132L14.6085 158.446C7.57426 170.604 15.4223 184.079 28.3939 178.69C39.5973 174.035 49.4438 167.224 53.0651 161.868L78.6848 114.979C82.4278 108.129 92.2683 108.136 96.0015 114.991C99.2126 120.889 95.7204 128.201 89.1154 129.41L79.6308 131.146C74.9993 131.993 71.018 134.93 68.8409 139.105C63.5396 149.271 70.9149 161.435 82.3799 161.435L118.137 161.435C133.041 161.435 142.709 145.718 135.988 132.415L104.073 69.2513C100.735 62.645 94.0209 58.4224 86.6207 58.2747L84.5235 58.2329C77.2434 58.0876 70.4596 61.9105 66.8131 68.2132Z" fill="url(#paint0_linear_dark)"/>
<defs>
<linearGradient id="paint0_linear_dark" x1="77.7826" y1="58.0984" x2="75.2414" y2="185.463" gradientUnits="userSpaceOnUse">
<stop stop-color="#7E20C8"/>
<stop offset="1" stop-color="#BB64FF"/>
</linearGradient>
</defs>
</svg>
